HIERARCHY
ROOT Hips
{
	OFFSET 0.000000 0.000000 0.000000
	CHANNELS 6 Xposition Yposition Zposition Xrotation Yrotation Zrotation
	JOINT LeftUpLeg_virtual
	{
		OFFSET 0.000000 0.000000 0.000000
		CHANNELS 3 Xrotation Yrotation Zrotation
		JOINT LeftUpLeg
		{
			OFFSET 10.205400 -3.823500 0.155100
			CHANNELS 3 Xrotation Yrotation Zrotation
			JOINT LeftLeg
			{
				OFFSET 0.708757 -12.982077 0.567790
				CHANNELS 3 Xrotation Yrotation Zrotation
				JOINT LeftFoot
				{
					OFFSET -0.708756 -10.717838 -2.184338
					CHANNELS 3 Xrotation Yrotation Zrotation
					JOINT LeftToeBase
					{
						OFFSET 0.108149 -7.191104 7.560241
						CHANNELS 3 Xrotation Yrotation Zrotation
						JOINT LeftToe_End
						{
							OFFSET 0.070230 0.081724 4.490308
							CHANNELS 3 Xrotation Yrotation Zrotation
							End Site
							{
								OFFSET 0 0 0
							}
						}
					}
				}
			}
		}
	}
	JOINT RightUpLeg_virtual
	{
		OFFSET 0.000000 0.000000 0.000000
		CHANNELS 3 Xrotation Yrotation Zrotation
		JOINT RightUpLeg
		{
			OFFSET -10.205400 -3.823500 0.005500
			CHANNELS 3 Xrotation Yrotation Zrotation
			JOINT RightLeg
			{
				OFFSET -0.708756 -12.982134 0.610632
				CHANNELS 3 Xrotation Yrotation Zrotation
				JOINT RightFoot
				{
					OFFSET 0.708754 -10.717769 -1.945823
					CHANNELS 3 Xrotation Yrotation Zrotation
					JOINT RightToeBase
					{
						OFFSET -0.108140 -7.191069 7.372968
						CHANNELS 3 Xrotation Yrotation Zrotation
						JOINT RightToe_End
						{
							OFFSET -0.070227 0.081735 4.479403
							CHANNELS 3 Xrotation Yrotation Zrotation
							End Site
							{
								OFFSET 0 0 0
							}
						}
					}
				}
			}
		}
	}
	JOINT Spine_virtual
	{
		OFFSET 0.000000 0.000000 0.000000
		CHANNELS 3 Xrotation Yrotation Zrotation
		JOINT Spine
		{
			OFFSET 0.000000 6.876099 0.125700
			CHANNELS 3 Xrotation Yrotation Zrotation
			JOINT Spine1
			{
				OFFSET 0.000000 5.730043 0.104720
				CHANNELS 3 Xrotation Yrotation Zrotation
				JOINT Spine1_split
				{
					OFFSET 0.000000 5.730043 0.104720
					CHANNELS 3 Xrotation Yrotation Zrotation
					JOINT Spine2
					{
						OFFSET 0.000000 5.730043 0.104720
						CHANNELS 3 Xrotation Yrotation Zrotation
						JOINT Neck_virtual
						{
							OFFSET 0.000000 0.000000 0.000000
							CHANNELS 3 Xrotation Yrotation Zrotation
							JOINT Neck
							{
								OFFSET 0.000000 10.314075 0.188496
								CHANNELS 3 Xrotation Yrotation Zrotation
								JOINT Head
								{
									OFFSET 0.000000 7.643700 -2.377400
									CHANNELS 3 Xrotation Yrotation Zrotation
									JOINT HeadTop_End
									{
										OFFSET 0.000000 43.788605 -13.619600
										CHANNELS 3 Xrotation Yrotation Zrotation
										End Site
										{
											OFFSET 0 0 0
										}
									}
								}
							}
						}
						JOINT LeftShoulder_virtual
						{
							OFFSET 0.000000 0.000000 0.000000
							CHANNELS 3 Xrotation Yrotation Zrotation
							JOINT LeftShoulder
							{
								OFFSET 2.196100 4.412489 0.087492
								CHANNELS 3 Xrotation Yrotation Zrotation
								JOINT LeftShoulder_split
								{
									OFFSET 2.196100 4.412489 0.087492
									CHANNELS 3 Xrotation Yrotation Zrotation
									JOINT LeftArm
									{
										OFFSET 8.771219 -2.981674 -0.026999
										CHANNELS 3 Xrotation Yrotation Zrotation
										JOINT LeftForeArm
										{
											OFFSET 8.512804 0.000000 -0.000000
											CHANNELS 3 Xrotation Yrotation Zrotation
											JOINT LeftHand
											{
												OFFSET 18.484802 0.000000 -0.000000
												CHANNELS 3 Xrotation Yrotation Zrotation
												End Site
												{
													OFFSET 0 0 0
												}
											}
										}
									}
								}
							}
						}
						JOINT RightShoulder_virtual
						{
							OFFSET 0.000000 0.000000 0.000000
							CHANNELS 3 Xrotation Yrotation Zrotation
							JOINT RightShoulder
							{
								OFFSET -2.196100 4.412496 0.070690
								CHANNELS 3 Xrotation Yrotation Zrotation
								JOINT RightShoulder_split
								{
									OFFSET -2.196100 4.412496 0.070690
									CHANNELS 3 Xrotation Yrotation Zrotation
									JOINT RightArm
									{
										OFFSET -8.771282 -2.981682 -0.094208
										CHANNELS 3 Xrotation Yrotation Zrotation
										JOINT RightForeArm
										{
											OFFSET -8.494598 0.000000 0.000000
											CHANNELS 3 Xrotation Yrotation Zrotation
											JOINT RightHand
											{
												OFFSET -18.483803 0.000000 0.000001
												CHANNELS 3 Xrotation Yrotation Zrotation
												End Site
												{
													OFFSET 0 0 0
												}
											}
										}
									}
								}
							}
						}
					}
				}
			}
		}
	}
}
MOTION
Frames: 7
Frame Time: 0.03333333
-0.613689 14.770175 35.269157 0.000000 0.000000 0.000000 16.961778 -26.052792 -9.321540 -8.640673 7.933472 5.270693 102.872621 -7.479516 -3.936605 30.002863 -9.825191 -28.549298 0.987216 -0.811690 -3.158833 0.000000 0.000000 0.000000 18.020612 -18.537284 -10.864678 10.523715 11.905961 -12.252670 70.238667 12.794103 -10.500817 42.413812 7.463516 26.721891 12.995019 -4.226085 -11.935102 0.000000 0.000000 0.000000 17.295134 -24.314826 -10.203494 7.050669 2.046691 4.313567 -3.225451 2.755691 1.720477 0.083258 -2.872787 1.379888 0.000000 0.000000 0.000000 -4.844764 2.758509 2.164406 -59.801954 -1.562620 18.796505 17.489184 15.852469 -16.343237 0.000000 0.000000 0.000000 -5.043581 2.834847 1.778410 -19.376473 0.903516 -15.696869 -4.253904 3.527698 -3.476186 11.926449 6.604286 -49.554057 72.207319 -31.687375 38.347069 0.000000 0.000000 0.000000 -5.088641 2.847319 1.862303 -18.356878 0.252745 22.557673 -8.754774 0.016929 -0.423731 4.559094 -9.079526 49.951424 7.178753 33.129566 9.292735 0.000000 0.000000 0.000000 
-0.458917 14.621294 36.642029 0.000000 0.000000 0.000000 18.531251 -27.535250 -9.422264 -3.532010 7.743216 3.690151 97.742664 -5.644239 -7.469936 26.910179 -6.636880 -27.429997 1.112961 -0.951465 -3.624832 0.000000 0.000000 0.000000 19.533723 -18.422077 -11.236521 10.680571 11.330740 -12.302196 70.895820 12.912553 -10.548186 40.917734 7.767289 25.750590 13.638643 -4.390369 -9.455296 0.000000 0.000000 0.000000 18.364287 -24.734326 -10.567466 6.926399 1.582250 4.830838 -3.495871 2.537125 2.032996 0.451890 -2.407921 1.194379 0.000000 0.000000 0.000000 -4.961458 2.614157 2.369468 -61.559143 -2.256997 19.775397 18.584540 16.701423 -16.939636 0.000000 0.000000 0.000000 -5.195658 2.630123 2.079679 -19.382118 1.186133 -15.589932 -3.752144 3.364238 -3.740923 13.047938 10.267874 -46.721414 75.320751 -33.735103 39.220186 0.000000 0.000000 0.000000 -5.276401 2.707032 2.104047 -18.328352 -1.022182 22.145802 -7.704863 -0.216623 0.263660 4.332958 -5.956032 52.573206 -1.827113 37.693225 13.749405 0.000000 0.000000 0.000000 
-0.331149 14.374404 37.948139 0.000000 0.000000 0.000000 20.322222 -28.318786 -9.248330 0.838371 6.221831 2.046395 94.345847 -4.841973 -9.433929 25.698042 -4.949992 -29.371330 -1.282237 -1.159917 -2.653984 0.000000 0.000000 0.000000 21.537192 -17.950996 -11.434623 10.762951 10.106916 -12.148536 70.469138 13.019660 -9.999509 41.123872 8.494542 24.917833 13.458610 -4.550027 -6.640354 0.000000 0.000000 0.000000 19.827271 -24.570948 -10.602825 6.695111 1.048438 5.031620 -3.602021 2.264657 2.454123 0.723892 -1.860046 0.948841 0.000000 0.000000 0.000000 -4.817410 2.416475 2.702096 -63.540061 -2.848664 20.143179 19.383969 16.927702 -17.411622 0.000000 0.000000 0.000000 -5.210829 2.414867 2.497908 -19.432954 0.991792 -14.981385 -2.732019 2.966770 -4.004498 14.811079 11.522877 -43.610317 74.921936 -37.734203 38.375046 0.000000 0.000000 0.000000 -5.164424 2.525524 2.475908 -18.419559 -2.037621 21.702486 -6.448514 -0.909659 0.865901 4.629204 -2.879266 55.596316 -7.689184 44.024756 15.834301 0.000000 0.000000 0.000000 
-0.243154 14.025493 39.191849 0.000000 0.000000 0.000000 22.519231 -28.088473 -8.743747 3.807423 3.462781 0.270452 92.325709 -4.941133 -9.616043 26.078577 -4.625174 -32.814981 -2.920454 -1.490168 -1.084794 0.000000 0.000000 0.000000 24.025406 -17.440704 -11.423099 11.035548 8.675083 -11.821315 68.766167 13.140289 -9.114554 42.615896 9.448628 24.372155 12.175154 -4.735258 -3.953023 0.000000 0.000000 0.000000 21.969867 -23.920475 -10.359429 6.363153 0.564488 4.882521 -3.560533 2.012784 2.922532 0.820467 -1.350732 0.898663 0.000000 0.000000 0.000000 -4.527647 2.231139 3.114701 -65.643097 -3.229149 19.923570 19.857677 16.433454 -17.698634 0.000000 0.000000 0.000000 -5.118166 2.257033 2.948736 -19.523329 0.376265 -13.972112 -1.904760 2.628888 -4.242537 16.658475 10.940610 -40.552568 70.524531 -42.389653 35.031671 0.000000 0.000000 0.000000 -4.820246 2.372044 2.886039 -18.686383 -2.616376 21.382276 -5.363556 -1.684915 1.206345 5.441514 -0.426483 57.583665 -9.313193 50.893362 14.683491 0.000000 0.000000 0.000000 
-0.213276 13.641017 40.305775 0.000000 0.000000 0.000000 25.324374 -26.915011 -8.054309 5.679883 -0.413691 -1.837088 89.676238 -4.644378 -8.433272 25.735145 -4.380327 -35.820934 -2.308509 -1.698741 0.061666 0.000000 0.000000 0.000000 27.021337 -16.997701 -11.132385 11.823064 7.444832 -11.272039 66.041673 13.104840 -8.069058 44.400638 10.083442 24.050802 10.138984 -4.956488 -1.760857 0.000000 0.000000 0.000000 24.843761 -22.809784 -10.054902 5.973672 0.219273 4.480214 -3.446561 1.840083 3.361647 0.846098 -0.895109 1.056951 0.000000 0.000000 0.000000 -4.213216 2.094356 3.479822 -67.772791 -3.376253 19.217031 20.143804 15.363447 -17.875624 0.000000 0.000000 0.000000 -4.956720 2.223920 3.314347 -19.610530 -0.414712 -12.726539 -1.629728 2.131010 -4.622985 18.730342 9.304173 -37.968024 62.867260 -46.611287 29.546022 0.000000 0.000000 0.000000 -4.379946 2.291523 3.234503 -19.073336 -2.829989 21.239621 -4.359574 -2.145841 1.057372 6.636774 1.146082 57.919608 -5.620634 57.408396 9.309824 0.000000 0.000000 0.000000 
-0.193667 13.240052 41.448124 0.000000 0.000000 0.000000 28.802792 -24.736469 -7.531569 7.357271 -5.040010 -4.478909 85.228774 -3.468398 -5.995457 23.346714 -3.253445 -38.412588 0.279773 -1.665777 0.146653 0.000000 0.000000 0.000000 30.453730 -16.548828 -10.723226 13.171899 6.848970 -10.583427 62.587059 12.989424 -7.081879 45.608841 10.301821 24.132558 8.004897 -5.146895 -0.259544 0.000000 0.000000 0.000000 28.506426 -21.528480 -9.694144 5.557120 0.088743 3.917969 -3.316012 1.780528 3.678779 0.758894 -0.519645 1.231549 0.000000 0.000000 0.000000 -3.993247 2.046907 3.713810 -69.819382 -3.195038 18.229336 20.405320 13.945151 -18.096429 0.000000 0.000000 0.000000 -4.777593 2.322921 3.493506 -19.664429 -1.051563 -11.324899 -2.201131 1.724588 -5.046614 21.281929 7.220239 -36.168454 54.445600 -49.864397 23.833301 0.000000 0.000000 0.000000 -3.949182 2.309758 3.434851 -19.479445 -2.835255 21.161938 -3.956208 -2.048689 0.800694 8.559077 1.853185 56.631568 3.772761 62.359409 -0.687569 0.000000 0.000000 0.000000 
-0.214112 12.787144 42.659725 0.000000 0.000000 0.000000 32.867977 -21.783621 -7.375382 9.353659 -9.723929 -7.139546 78.698075 -1.778617 -2.618844 19.611835 -1.919963 -40.872439 1.887443 -1.430999 -0.287803 0.000000 0.000000 0.000000 34.193187 -15.733356 -10.522579 15.207647 6.878716 -9.822437 59.027485 12.900789 -6.379840 45.876922 10.172884 24.686349 6.220026 -5.172538 0.543388 0.000000 0.000000 0.000000 32.869148 -19.953891 -9.389466 5.125354 0.207530 3.365483 -3.244351 1.820512 3.851999 0.680258 -0.366583 1.437661 0.000000 0.000000 0.000000 -3.950146 2.078631 3.803500 -71.769674 -2.800791 17.215466 20.693610 12.495121 -18.490628 0.000000 0.000000 0.000000 -4.676858 2.520899 3.505010 -19.681501 -1.377257 -9.860832 -3.195431 1.224839 -5.709548 24.124153 5.000913 -35.095742 48.028555 -52.693270 20.140131 0.000000 0.000000 0.000000 -3.675572 2.401843 3.474227 -19.804747 -2.815614 21.005767 -4.053279 -1.520419 0.665336 11.363653 1.737697 54.129621 16.948913 65.332494 -13.435029 0.000000 0.000000 0.000000 
